<svg width="89" height="44" viewBox="0 0 89 44" fill="none" xmlns="http://www.w3.org/2000/svg">
<path d="M41.5119 34.6191C40.7369 35.5593 39.778 36.3267 38.6954 36.8731C37.6559 37.3836 36.514 37.6449 35.3585 37.6365C33.348 37.6365 31.6989 36.8706 30.411 35.3389C29.1232 33.8072 28.4788 31.8189 28.478 29.374C28.478 26.3105 29.3504 23.7668 31.0951 21.7428C32.8399 19.7188 35.0181 18.7072 37.6299 18.708C38.7613 18.6889 39.88 18.951 40.888 19.4714C41.8478 19.9811 42.7144 20.7677 43.4879 21.8312L43.8866 19.2696H49.7446L47.5988 32.9803C47.4241 34.0968 46.8616 35.1135 46.0124 35.8476C45.1632 36.5818 44.0831 36.9852 42.9662 36.9852H41.219L41.5119 34.6191ZM34.6978 28.7575C34.6978 29.8916 35.0386 30.8048 35.7203 31.4972C36.4019 32.1896 37.3042 32.5345 38.4272 32.532C39.6519 32.532 40.6715 32.0497 41.486 31.085C42.3006 30.1203 42.7078 28.9128 42.7078 27.4624C42.7078 26.3632 42.367 25.4716 41.6854 24.7875C41.0037 24.1035 40.1141 23.761 39.0166 23.7602C38.4298 23.7479 37.8477 23.869 37.3133 24.1145C36.7788 24.3599 36.3055 24.7235 35.9282 25.1786C35.1079 26.1266 34.6978 27.3196 34.6978 28.7575Z" fill="white"/>
<path d="M63.7358 36.9852L66.508 19.2672H72.4361L72.0006 22.2908C72.5436 21.1692 73.2716 20.3153 74.1846 19.7292C75.0975 19.1431 76.1606 18.8525 77.3738 18.8575C77.5186 18.8585 77.6631 18.8672 77.8069 18.8836C77.9693 18.9011 78.2228 18.9397 78.5698 18.9982L77.3394 24.5584C76.935 24.4655 76.5708 24.3953 76.2468 24.348C75.937 24.3027 75.6246 24.2794 75.3116 24.2783C74.1206 24.2783 73.1814 24.6556 72.494 25.4102C71.8066 26.1649 71.3357 27.3313 71.0815 28.9095L70.3924 33.3751C70.2368 34.3847 69.7296 35.3046 68.9623 35.9687C68.1951 36.6328 67.2185 36.9974 66.209 36.9964L63.7358 36.9852Z" fill="white"/>
<path d="M78.8295 36.9852L81.5856 19.2671H87.8078L85.6718 32.9143C85.494 34.0492 84.922 35.0827 84.0586 35.8289C83.1953 36.5751 82.0971 36.9851 80.9618 36.9852H78.8295Z" fill="white"/>
<path d="M82.053 13.9877C82.0543 13.1041 82.4018 12.257 83.0193 11.6323C83.6367 11.0076 84.4738 10.6563 85.3468 10.6553C86.3049 10.6553 87.1022 10.9707 87.7388 11.6017C88.0519 11.9112 88.2983 12.283 88.4625 12.6936C88.6266 13.1043 88.7049 13.5449 88.6924 13.9877C88.6965 14.4335 88.6127 14.8757 88.4461 15.2883C88.2794 15.701 88.0331 16.0759 87.7216 16.3912C87.4101 16.7064 87.0397 16.9557 86.632 17.1244C86.2242 17.2931 85.7873 17.3778 85.3468 17.3736C84.9112 17.3801 84.479 17.2949 84.0776 17.1234C83.6762 16.9519 83.3145 16.6979 83.0152 16.3774C82.7042 16.0651 82.4587 15.6925 82.2933 15.2818C82.128 14.8712 82.0463 14.431 82.053 13.9877Z" fill="white"/>
<path d="M61.408 18.1924H55.2645L55.1009 19.2671H52.1897L51.4785 23.7937H54.3909L52.3275 36.9851H54.7428C55.7843 36.9852 56.7915 36.6088 57.583 35.9239C58.3746 35.239 58.8985 34.2905 59.0604 33.2492L60.5258 23.795H63.6634L64.3745 19.2683H61.237L61.408 18.1924Z" fill="white"/>
<path d="M62.0514 14.1279H55.8808L55.2644 18.1926H61.4067L62.0514 14.1279Z" fill="white"/>
<path d="M13.5161 4.09349C13.5093 3.57147 13.6076 3.05351 13.8049 2.57117C14.0023 2.08882 14.2946 1.65218 14.664 1.28784C15.0233 0.909148 15.4559 0.609518 15.9348 0.407679C16.4137 0.20584 16.9286 0.106129 17.4473 0.114776C18.5916 0.114776 19.5431 0.491685 20.3018 1.2455C21.0606 1.99932 21.44 2.94865 21.44 4.09349C21.45 4.62567 21.3523 5.15428 21.153 5.64684C20.9537 6.1394 20.6569 6.58548 20.2809 6.95767C19.9132 7.33818 19.4724 7.63854 18.9857 7.84027C18.4991 8.04201 17.9768 8.14085 17.4509 8.13074C16.9314 8.13901 16.4159 8.03814 15.9368 7.83452C15.4578 7.63089 15.0256 7.32893 14.6677 6.94771C14.2958 6.57496 14.002 6.13001 13.8041 5.63954C13.6062 5.14908 13.5082 4.62322 13.5161 4.09349Z" fill="white"/>
<path d="M3.52766 25.5786C3.04656 25.6471 2.64914 25.7031 2.28862 25.9011C1.93913 26.0635 1.63929 26.3181 1.42062 26.6382C1.20194 26.9584 1.0725 27.3322 1.0459 27.7205L2.48426 38.8211L2.83001 41.6242C2.84302 41.8047 2.87646 41.9831 2.92967 42.156C2.97324 42.2949 3.03667 42.4266 3.11793 42.547C3.28083 42.7896 3.50581 42.9829 3.76882 43.1061C4.04766 43.2348 4.35146 43.2986 4.65788 43.2928C4.96429 43.287 5.26552 43.2117 5.53939 43.0725C5.79002 42.9519 6.00298 42.7637 6.15491 42.5287C6.30684 42.2936 6.39188 42.0208 6.40069 41.74L5.22933 30.6669L5.10629 29.4751L6.29118 29.3506L13.1225 28.6146L14.8315 28.4415C15.3097 28.4009 15.7816 28.3044 16.2379 28.1539C17.0586 27.86 17.4991 27.3805 17.8091 26.4752C18.0909 25.6321 18.2238 24.3669 18.4551 23.2574L19.058 19.8328L20.2651 12.9837L20.5677 11.2988C20.6537 10.8467 20.6575 10.3825 20.5788 9.92898C20.5557 9.763 20.4969 9.60416 20.4065 9.46367C20.3162 9.32318 20.1965 9.20443 20.0559 9.1158C19.7655 8.93274 19.309 8.84308 18.8255 8.83188C16.799 8.80074 14.6691 9.65626 13.3292 11.2988C12.6416 12.12 12.1446 13.0869 11.8748 14.1281C11.7503 14.6887 11.6587 15.2563 11.6004 15.8279L11.3667 17.5863L10.434 24.418C8.60683 24.8439 6.75628 25.0718 4.9168 25.3681L3.52766 25.5786Z" fill="white"/>
<path d="M29.2693 9.84766H23.3916L22.7419 13.9995L22.6939 14.3033L22.2584 17.0019C21.7182 20.3642 21.1596 23.8361 20.5739 27.2531C20.2048 29.4137 18.6052 30.9131 16.3905 31.1683C15.24 31.3016 13.7955 31.4635 8.66345 31.6104L10.0428 37.5604C14.1524 37.5405 16.2822 37.1507 16.7916 37.0735C22.0234 36.279 25.3812 33.3464 26.2462 28.816C26.9844 24.9693 27.5812 21.0441 28.1718 17.18C28.3686 15.8907 28.5676 14.6009 28.7685 13.3108C28.7784 13.2523 28.7747 13.1975 28.7808 13.1402L29.2693 9.84766Z" fill="white"/>
</svg>
