<svg width="146" height="44" viewBox="0 0 146 44" fill="none" xmlns="http://www.w3.org/2000/svg">
<path d="M41.5119 34.6191C40.7369 35.5592 39.778 36.3266 38.6954 36.8731C37.6559 37.3836 36.514 37.6448 35.3585 37.6364C33.348 37.6364 31.6989 36.8706 30.411 35.3389C29.1232 33.8071 28.4788 31.8188 28.478 29.3739C28.478 26.3105 29.3504 23.7667 31.0951 21.7427C32.8399 19.7187 35.0181 18.7071 37.6299 18.7079C38.7613 18.6889 39.88 18.951 40.888 19.4713C41.8478 19.981 42.7144 20.7677 43.4879 21.8311L43.8866 19.2696H49.7446L47.5988 32.9803C47.4241 34.0967 46.8616 35.1134 46.0124 35.8476C45.1632 36.5817 44.0831 36.9851 42.9662 36.9851H41.219L41.5119 34.6191ZM34.6978 28.7575C34.6978 29.8915 35.0386 30.8047 35.7203 31.4971C36.4019 32.1895 37.3042 32.5344 38.4272 32.532C39.6519 32.532 40.6715 32.0496 41.486 31.0849C42.3006 30.1202 42.7078 28.9127 42.7078 27.4624C42.7078 26.3632 42.367 25.4716 41.6854 24.7875C41.0037 24.1034 40.1141 23.7609 39.0166 23.7601C38.4298 23.7479 37.8477 23.8689 37.3133 24.1144C36.7788 24.3599 36.3055 24.7235 35.9282 25.1785C35.1079 26.1266 34.6978 27.3196 34.6978 28.7575Z" fill="#F04935"/>
<path d="M63.7358 36.9852L66.508 19.2672H72.4361L72.0006 22.2908C72.5436 21.1692 73.2716 20.3153 74.1846 19.7292C75.0975 19.1431 76.1606 18.8525 77.3738 18.8575C77.5186 18.8585 77.6631 18.8672 77.8069 18.8836C77.9693 18.9011 78.2228 18.9397 78.5698 18.9982L77.3394 24.5584C76.935 24.4655 76.5708 24.3953 76.2468 24.348C75.937 24.3027 75.6246 24.2794 75.3116 24.2783C74.1206 24.2783 73.1814 24.6556 72.494 25.4102C71.8066 26.1649 71.3357 27.3313 71.0815 28.9095L70.3924 33.3751C70.2368 34.3847 69.7296 35.3046 68.9623 35.9687C68.1951 36.6328 67.2185 36.9974 66.209 36.9964L63.7358 36.9852Z" fill="#F04935"/>
<path d="M78.8295 36.9853L81.5856 19.2672H87.8078L85.6718 32.9144C85.494 34.0493 84.922 35.0828 84.0586 35.829C83.1953 36.5752 82.0971 36.9852 80.9618 36.9853H78.8295Z" fill="#F04935"/>
<path d="M82.053 13.9875C82.0543 13.1039 82.4018 12.2568 83.0193 11.6321C83.6367 11.0074 84.4738 10.6561 85.3468 10.6551C86.3049 10.6551 87.1022 10.9706 87.7388 11.6015C88.0519 11.911 88.2983 12.2828 88.4625 12.6934C88.6266 13.1041 88.7049 13.5447 88.6924 13.9875C88.6965 14.4333 88.6127 14.8755 88.4461 15.2881C88.2794 15.7008 88.0331 16.0757 87.7216 16.391C87.4101 16.7062 87.0397 16.9555 86.632 17.1242C86.2242 17.2929 85.7873 17.3776 85.3468 17.3735C84.9112 17.3799 84.479 17.2947 84.0776 17.1232C83.6762 16.9517 83.3145 16.6977 83.0152 16.3772C82.7042 16.0649 82.4587 15.6923 82.2933 15.2817C82.128 14.871 82.0463 14.4309 82.053 13.9875Z" fill="#F04935"/>
<path d="M61.408 18.1924H55.2645L55.1009 19.2671H52.1897L51.4785 23.7937H54.3909L52.3275 36.9851H54.7428C55.7843 36.9852 56.7915 36.6088 57.583 35.9239C58.3746 35.239 58.8985 34.2905 59.0604 33.2492L60.5258 23.795H63.6634L64.3745 19.2683H61.237L61.408 18.1924Z" fill="#F04935"/>
<path d="M62.0514 14.1279H55.8808L55.2644 18.1925H61.4067L62.0514 14.1279Z" fill="#F04935"/>
<path d="M13.5161 4.09331C13.5093 3.57129 13.6076 3.05333 13.8049 2.57098C14.0023 2.08864 14.2946 1.652 14.664 1.28766C15.0233 0.908965 15.4559 0.609335 15.9348 0.407496C16.4137 0.205657 16.9286 0.105946 17.4473 0.114593C18.5916 0.114593 19.5431 0.491502 20.3018 1.24532C21.0606 1.99914 21.44 2.94847 21.44 4.09331C21.45 4.62548 21.3523 5.1541 21.153 5.64666C20.9537 6.13921 20.6569 6.5853 20.2809 6.95749C19.9132 7.338 19.4724 7.63835 18.9857 7.84009C18.4991 8.04182 17.9768 8.14067 17.4509 8.13056C16.9314 8.13883 16.4159 8.03796 15.9368 7.83434C15.4578 7.63071 15.0256 7.32875 14.6677 6.94753C14.2958 6.57477 14.002 6.12982 13.8041 5.63936C13.6062 5.1489 13.5082 4.62303 13.5161 4.09331Z" fill="#F04935"/>
<path d="M3.52766 25.5784C3.04656 25.6469 2.64914 25.7029 2.28862 25.9009C1.93913 26.0633 1.63929 26.3179 1.42062 26.638C1.20194 26.9582 1.0725 27.332 1.0459 27.7203L2.48426 38.8208L2.83001 41.624C2.84302 41.8045 2.87646 41.9829 2.92967 42.1557C2.97324 42.2947 3.03667 42.4264 3.11793 42.5468C3.28083 42.7894 3.50581 42.9826 3.76882 43.1059C4.04766 43.2346 4.35146 43.2984 4.65788 43.2926C4.96429 43.2868 5.26552 43.2115 5.53939 43.0723C5.79002 42.9517 6.00298 42.7635 6.15491 42.5285C6.30684 42.2934 6.39188 42.0205 6.40069 41.7398L5.22933 30.6667L5.10629 29.4749L6.29118 29.3504L13.1225 28.6144L14.8315 28.4413C15.3097 28.4007 15.7816 28.3041 16.2379 28.1537C17.0586 27.8598 17.4991 27.3803 17.8091 26.475C18.0909 25.6319 18.2238 24.3667 18.4551 23.2572L19.058 19.8326L20.2651 12.9835L20.5677 11.2986C20.6537 10.8465 20.6575 10.3823 20.5788 9.92877C20.5557 9.76278 20.4969 9.60395 20.4065 9.46346C20.3162 9.32296 20.1965 9.20422 20.0559 9.11559C19.7655 8.93253 19.309 8.84287 18.8255 8.83166C16.799 8.80053 14.6691 9.65605 13.3292 11.2986C12.6416 12.1198 12.1446 13.0866 11.8748 14.1279C11.7503 14.6885 11.6587 15.2561 11.6004 15.8277L11.3667 17.5861L10.434 24.4178C8.60683 24.8437 6.75628 25.0715 4.9168 25.3679L3.52766 25.5784Z" fill="#F04935"/>
<path d="M29.2692 9.84769H23.3915L22.7418 13.9995L22.6938 14.3034L22.2582 17.0019C21.7181 20.3642 21.1595 23.8361 20.5738 27.2532C20.2047 29.4138 18.6051 30.9131 16.3904 31.1684C15.2399 31.3016 13.7954 31.4635 8.66333 31.6105L10.0426 37.5605C14.1522 37.5406 16.2821 37.1508 16.7915 37.0736C22.0232 36.2791 25.3811 33.3464 26.246 28.816C26.9843 24.9693 27.581 21.0441 28.1716 17.18C28.3685 15.8907 28.5674 14.601 28.7684 13.3109C28.7782 13.2523 28.7746 13.1975 28.7807 13.1402L29.2692 9.84769Z" fill="#F04935"/>
<path d="M97.9105 37L99.8423 25.3636H103.99C104.892 25.3636 105.613 25.5189 106.155 25.8295C106.7 26.1364 107.075 26.5644 107.28 27.1136C107.488 27.6591 107.534 28.2917 107.416 29.0114C107.295 29.7235 107.039 30.3485 106.649 30.8864C106.263 31.4242 105.746 31.8447 105.098 32.1477C104.454 32.447 103.681 32.5966 102.78 32.5966H99.6378L99.8991 31.0852H102.882C103.454 31.0852 103.931 31.0038 104.314 30.8409C104.696 30.678 104.996 30.4413 105.212 30.1307C105.431 29.8201 105.575 29.447 105.643 29.0114C105.715 28.5682 105.695 28.1875 105.581 27.8693C105.467 27.5473 105.246 27.3011 104.916 27.1307C104.587 26.9564 104.134 26.8693 103.558 26.8693H101.354L99.6662 37H97.9105ZM104.524 31.75L106.53 37H104.53L102.575 31.75H104.524ZM111.763 37.1761C110.907 37.1761 110.198 36.9924 109.638 36.625C109.081 36.2538 108.691 35.733 108.467 35.0625C108.244 34.3883 108.208 33.5985 108.359 32.6932C108.507 31.7992 108.804 31.0114 109.251 30.3295C109.698 29.6477 110.255 29.1155 110.922 28.733C111.592 28.3504 112.333 28.1591 113.143 28.1591C113.636 28.1591 114.1 28.2405 114.536 28.4034C114.975 28.5663 115.348 28.822 115.655 29.1705C115.962 29.5189 116.174 29.9716 116.291 30.5284C116.412 31.0814 116.409 31.7538 116.28 32.5455L116.183 33.1477H109.24L109.439 31.875H114.712C114.791 31.428 114.77 31.0322 114.649 30.6875C114.528 30.339 114.32 30.0644 114.024 29.8636C113.732 29.6629 113.365 29.5625 112.922 29.5625C112.467 29.5625 112.043 29.6818 111.649 29.9205C111.255 30.1591 110.926 30.464 110.661 30.8352C110.399 31.2027 110.234 31.5814 110.166 31.9716L109.967 33.1364C109.869 33.7727 109.886 34.2841 110.018 34.6705C110.155 35.0568 110.393 35.3371 110.734 35.5114C111.075 35.6856 111.501 35.7727 112.013 35.7727C112.342 35.7727 112.647 35.7273 112.928 35.6364C113.212 35.5417 113.464 35.4034 113.683 35.2216C113.903 35.036 114.087 34.8049 114.234 34.5284L115.791 34.8182C115.583 35.2917 115.284 35.7064 114.893 36.0625C114.503 36.4148 114.043 36.6894 113.513 36.8864C112.986 37.0795 112.403 37.1761 111.763 37.1761ZM120.003 31.8182L119.151 37H117.452L118.906 28.2727H120.537L120.298 29.6932H120.406C120.683 29.2273 121.06 28.8561 121.537 28.5795C122.018 28.2992 122.586 28.1591 123.241 28.1591C123.832 28.1591 124.329 28.2841 124.73 28.5341C125.135 28.7803 125.421 29.1477 125.588 29.6364C125.759 30.125 125.785 30.7292 125.668 31.4489L124.736 37H123.037L123.929 31.6534C124.031 31.0208 123.948 30.5265 123.679 30.1705C123.414 29.8106 122.991 29.6307 122.412 29.6307C122.018 29.6307 121.652 29.7159 121.315 29.8864C120.982 30.0568 120.7 30.3068 120.469 30.6364C120.241 30.9621 120.086 31.3561 120.003 31.8182ZM132.537 28.2727L132.315 29.6364H127.548L127.77 28.2727H132.537ZM129.389 26.1818H131.088L129.713 34.4375C129.66 34.767 129.67 35.0152 129.741 35.1818C129.813 35.3447 129.923 35.4564 130.071 35.517C130.223 35.5739 130.391 35.6023 130.577 35.6023C130.713 35.6023 130.832 35.5928 130.935 35.5739C131.037 35.5549 131.118 35.5398 131.179 35.5284L131.27 36.9318C131.156 36.9697 131.003 37.0076 130.81 37.0455C130.62 37.0871 130.389 37.1098 130.116 37.1136C129.67 37.1212 129.266 37.0417 128.906 36.875C128.546 36.7045 128.277 36.447 128.099 36.1023C127.921 35.7538 127.878 35.3163 127.969 34.7898L129.389 26.1818ZM135.479 37.1932C134.926 37.1932 134.443 37.0909 134.03 36.8864C133.617 36.678 133.312 36.3769 133.115 35.983C132.918 35.589 132.867 35.1061 132.962 34.5341C133.045 34.0417 133.208 33.6364 133.45 33.3182C133.696 33 133.996 32.7481 134.348 32.5625C134.7 32.3731 135.083 32.2311 135.496 32.1364C135.909 32.0417 136.325 31.9716 136.746 31.9261C137.276 31.8655 137.706 31.8144 138.036 31.7727C138.369 31.7311 138.619 31.6667 138.786 31.5795C138.952 31.4886 139.053 31.3409 139.087 31.1364V31.0966C139.166 30.6042 139.094 30.2216 138.871 29.9489C138.651 29.6723 138.268 29.5341 137.723 29.5341C137.155 29.5341 136.678 29.6591 136.291 29.9091C135.909 30.1591 135.626 30.4394 135.445 30.75L133.922 30.3864C134.195 29.8561 134.541 29.428 134.962 29.1023C135.386 28.7727 135.85 28.5341 136.354 28.3864C136.857 28.2348 137.373 28.1591 137.899 28.1591C138.248 28.1591 138.609 28.2008 138.984 28.2841C139.359 28.3636 139.7 28.5114 140.007 28.7273C140.318 28.9432 140.549 29.2519 140.7 29.6534C140.852 30.0511 140.875 30.5682 140.768 31.2045L139.808 37H138.149L138.354 35.8068H138.286C138.142 36.0265 137.941 36.2424 137.683 36.4545C137.429 36.6667 137.119 36.8428 136.751 36.983C136.384 37.1231 135.96 37.1932 135.479 37.1932ZM136.058 35.8295C136.532 35.8295 136.95 35.7367 137.314 35.5511C137.681 35.3655 137.979 35.1231 138.206 34.8239C138.433 34.5208 138.575 34.197 138.632 33.8523L138.82 32.7273C138.748 32.7879 138.621 32.8428 138.439 32.892C138.261 32.9413 138.06 32.9848 137.837 33.0227C137.613 33.0606 137.393 33.0928 137.178 33.1193C136.965 33.1458 136.789 33.1705 136.649 33.1932C136.316 33.2348 136.003 33.3049 135.712 33.4034C135.424 33.5019 135.183 33.6439 134.99 33.8295C134.797 34.0114 134.676 34.2538 134.626 34.5568C134.558 34.9773 134.659 35.2955 134.928 35.5114C135.2 35.7235 135.577 35.8295 136.058 35.8295ZM145.702 25.3636L143.77 37H142.071L144.003 25.3636H145.702Z" fill="#F04935"/>
</svg>
