<svg width="106" height="30" viewBox="0 0 106 30" fill="none" xmlns="http://www.w3.org/2000/svg">
<path d="M102.074 0H3.92593C1.7577 0 0 1.67893 0 3.75V26.25C0 28.3211 1.7577 30 3.92593 30H102.074C104.242 30 106 28.3211 106 26.25V3.75C106 1.67893 104.242 0 102.074 0Z" fill="black"/>
<path d="M102.074 0.600002C102.949 0.600002 103.787 0.931874 104.406 1.52261C105.024 2.11335 105.372 2.91457 105.372 3.75V26.25C105.372 27.0854 105.024 27.8866 104.406 28.4774C103.787 29.0681 102.949 29.4 102.074 29.4H3.92593C3.0513 29.4 2.2125 29.0681 1.59404 28.4774C0.975591 27.8866 0.628148 27.0854 0.628148 26.25V3.75C0.628148 3.33634 0.713448 2.92672 0.879177 2.54455C1.04491 2.16237 1.28782 1.81512 1.59404 1.52261C1.90027 1.23011 2.26382 0.998081 2.66392 0.839779C3.06403 0.681477 3.49286 0.600002 3.92593 0.600002H102.074ZM102.074 0H3.92593C2.88471 0 1.88613 0.395085 1.14988 1.09835C0.413623 1.80161 0 2.75544 0 3.75V26.25C0 27.2446 0.413623 28.1984 1.14988 28.9016C1.88613 29.6049 2.88471 30 3.92593 30H102.074C103.115 30 104.114 29.6049 104.85 28.9016C105.586 28.1984 106 27.2446 106 26.25V3.75C106 2.75544 105.586 1.80161 104.85 1.09835C104.114 0.395085 103.115 0 102.074 0Z" fill="#A6A6A6"/>
<path d="M16.3367 12.845L9.16417 20.0175L7.98584 18.8392L15.1575 11.6667H8.83667V10H18.0033V19.1667H16.3367V12.845Z" fill="white"/>
<path d="M26.8608 6.63636H26.1491L27.7195 11H28.4801L30.0504 6.63636H29.3388L28.1243 10.1903H28.0753L26.8608 6.63636ZM31.339 6.63636H30.6806V11H31.339V6.63636ZM34.6777 7.78267H35.3127C35.2935 7.08381 34.6756 6.5767 33.7892 6.5767C32.9135 6.5767 32.2424 7.07741 32.2424 7.82955C32.2424 8.43679 32.677 8.79261 33.378 8.98224L33.8936 9.12287C34.3603 9.24645 34.7203 9.39986 34.7203 9.78764C34.7203 10.2138 34.3134 10.495 33.753 10.495C33.2459 10.495 32.824 10.2692 32.7857 9.79403H32.1252C32.1678 10.5845 32.7793 11.0724 33.7573 11.0724C34.7821 11.0724 35.3723 10.5334 35.3723 9.79403C35.3723 9.00781 34.6713 8.70312 34.1174 8.56676L33.6912 8.45597C33.3503 8.36861 32.8965 8.20881 32.8986 7.79119C32.8986 7.42045 33.2374 7.1456 33.7743 7.1456C34.275 7.1456 34.6309 7.37997 34.6777 7.78267ZM36.8175 6.63636H36.1591V11H36.8175V6.63636ZM37.5611 7.20312H38.9205V11H39.5767V7.20312H40.9382V6.63636H37.5611V7.20312ZM46.0785 6.63636V9.45312C46.0785 10.0455 45.6694 10.4716 45.0046 10.4716C44.342 10.4716 43.9308 10.0455 43.9308 9.45312V6.63636H43.2724V9.50639C43.2724 10.4226 43.9585 11.0724 45.0046 11.0724C46.0508 11.0724 46.739 10.4226 46.739 9.50639V6.63636H46.0785ZM50.0762 7.78267H50.7111C50.6919 7.08381 50.074 6.5767 49.1877 6.5767C48.312 6.5767 47.6408 7.07741 47.6408 7.82955C47.6408 8.43679 48.0755 8.79261 48.7765 8.98224L49.2921 9.12287C49.7587 9.24645 50.1188 9.39986 50.1188 9.78764C50.1188 10.2138 49.7118 10.495 49.1515 10.495C48.6444 10.495 48.2225 10.2692 48.1841 9.79403H47.5236C47.5662 10.5845 48.1777 11.0724 49.1557 11.0724C50.1806 11.0724 50.7708 10.5334 50.7708 9.79403C50.7708 9.00781 50.0698 8.70312 49.5158 8.56676L49.0897 8.45597C48.7488 8.36861 48.2949 8.20881 48.2971 7.79119C48.2971 7.42045 48.6358 7.1456 49.1728 7.1456C49.6735 7.1456 50.0293 7.37997 50.0762 7.78267Z" fill="#DBDBDB"/>
<path d="M28.2756 24L26.3494 17.4545H27.6662L28.9489 22.2614H29.0128L30.2997 17.4545H31.6165L32.8949 22.2401H32.9588L34.233 17.4545H35.5497L33.6278 24H32.3281L30.9986 19.2741H30.9006L29.571 24H28.2756ZM38.1779 24L36.2518 17.4545H37.5685L38.8512 22.2614H38.9151L40.2021 17.4545H41.5188L42.7972 22.2401H42.8612L44.1353 17.4545H45.4521L43.5302 24H42.2305L40.9009 19.2741H40.8029L39.4734 24H38.1779ZM48.0803 24L46.1541 17.4545H47.4709L48.7536 22.2614H48.8175L50.1044 17.4545H51.4212L52.6996 22.2401H52.7635L54.0376 17.4545H55.3544L53.4325 24H52.1328L50.8033 19.2741H50.7053L49.3757 24H48.0803ZM56.5124 24.081C56.2795 24.081 56.0792 23.9986 55.9116 23.8338C55.744 23.6662 55.6602 23.4645 55.6602 23.2287C55.6602 22.9957 55.744 22.7969 55.9116 22.6321C56.0792 22.4645 56.2795 22.3807 56.5124 22.3807C56.7454 22.3807 56.9457 22.4645 57.1133 22.6321C57.2809 22.7969 57.3647 22.9957 57.3647 23.2287C57.3647 23.3849 57.3249 23.5284 57.2454 23.6591C57.1687 23.7869 57.0664 23.8892 56.9386 23.9659C56.8107 24.0426 56.6687 24.081 56.5124 24.081ZM59.0714 17.4545H60.3455V24.4261C60.3455 24.8636 60.266 25.233 60.1069 25.5341C59.9506 25.8352 59.7177 26.0639 59.408 26.2202C59.1012 26.3764 58.7219 26.4545 58.2702 26.4545C58.2248 26.4545 58.1822 26.4545 58.1424 26.4545C58.0998 26.4545 58.0558 26.4531 58.0103 26.4503V25.3551C58.0501 25.3551 58.0856 25.3551 58.1168 25.3551C58.1452 25.3551 58.1779 25.3551 58.2148 25.3551C58.516 25.3551 58.7333 25.2741 58.8668 25.1122C59.0032 24.9531 59.0714 24.7216 59.0714 24.4176V17.4545ZM59.7021 16.4446C59.4805 16.4446 59.2901 16.3707 59.131 16.223C58.9748 16.0724 58.8967 15.8935 58.8967 15.6861C58.8967 15.4759 58.9748 15.2969 59.131 15.1491C59.2901 14.9986 59.4805 14.9233 59.7021 14.9233C59.9237 14.9233 60.1126 14.9986 60.2688 15.1491C60.4279 15.2969 60.5075 15.4759 60.5075 15.6861C60.5075 15.8935 60.4279 16.0724 60.2688 16.223C60.1126 16.3707 59.9237 16.4446 59.7021 16.4446ZM63.9645 24.1449C63.5497 24.1449 63.1747 24.0682 62.8395 23.9148C62.5043 23.7585 62.2386 23.5327 62.0426 23.2372C61.8494 22.9418 61.7528 22.5795 61.7528 22.1506C61.7528 21.7812 61.8239 21.4773 61.9659 21.2386C62.108 21 62.2997 20.8111 62.5412 20.6719C62.7827 20.5327 63.0526 20.4276 63.3509 20.3565C63.6491 20.2855 63.9531 20.2315 64.2628 20.1946C64.6548 20.1491 64.973 20.1122 65.2173 20.0838C65.4616 20.0526 65.6392 20.0028 65.75 19.9347C65.8608 19.8665 65.9162 19.7557 65.9162 19.6023V19.5724C65.9162 19.2003 65.8111 18.9119 65.6009 18.7074C65.3935 18.5028 65.0838 18.4006 64.6719 18.4006C64.2429 18.4006 63.9048 18.4957 63.6577 18.6861C63.4134 18.8736 63.2443 19.0824 63.1506 19.3125L61.9531 19.0398C62.0952 18.642 62.3026 18.321 62.5753 18.0767C62.8509 17.8295 63.1676 17.6506 63.5256 17.5398C63.8835 17.4261 64.2599 17.3693 64.6548 17.3693C64.9162 17.3693 65.1932 17.4006 65.4858 17.4631C65.7813 17.5227 66.0568 17.6335 66.3125 17.7955C66.571 17.9574 66.7827 18.1889 66.9474 18.4901C67.1122 18.7884 67.1946 19.1761 67.1946 19.6534V24H65.9503V23.1051H65.8991C65.8168 23.2699 65.6932 23.4318 65.5284 23.5909C65.3636 23.75 65.152 23.8821 64.8935 23.9872C64.6349 24.0923 64.3253 24.1449 63.9645 24.1449ZM64.2415 23.1222C64.5938 23.1222 64.8949 23.0526 65.1449 22.9134C65.3977 22.7741 65.5895 22.5923 65.7202 22.3679C65.8537 22.1406 65.9205 21.8977 65.9205 21.6392V20.7955C65.875 20.8409 65.7869 20.8835 65.6562 20.9233C65.5284 20.9602 65.3821 20.9929 65.2173 21.0213C65.0526 21.0469 64.892 21.071 64.7358 21.0938C64.5795 21.1136 64.4489 21.1307 64.3438 21.1449C64.0966 21.1761 63.8707 21.2287 63.6662 21.3026C63.4645 21.3764 63.3026 21.483 63.1804 21.6222C63.0611 21.7585 63.0014 21.9403 63.0014 22.1676C63.0014 22.483 63.1179 22.7216 63.3509 22.8835C63.5838 23.0426 63.8807 23.1222 64.2415 23.1222ZM71.9471 17.4545V18.4773H68.3718V17.4545H71.9471ZM69.3306 15.8864H70.6048V22.0781C70.6048 22.3253 70.6417 22.5114 70.7156 22.6364C70.7894 22.7585 70.8846 22.8423 71.0011 22.8878C71.1204 22.9304 71.2496 22.9517 71.3888 22.9517C71.4911 22.9517 71.5806 22.9446 71.6573 22.9304C71.734 22.9162 71.7937 22.9048 71.8363 22.8963L72.0664 23.9489C71.9925 23.9773 71.8874 24.0057 71.7511 24.0341C71.6147 24.0653 71.4442 24.0824 71.2397 24.0852C70.9045 24.0909 70.592 24.0312 70.3022 23.9062C70.0124 23.7812 69.7781 23.5881 69.5991 23.3267C69.4201 23.0653 69.3306 22.7372 69.3306 22.3423V15.8864ZM73.3565 24V17.4545H74.5881V18.4943H74.6562C74.7756 18.142 74.9858 17.8651 75.2869 17.6634C75.5909 17.4588 75.9347 17.3565 76.3182 17.3565C76.3977 17.3565 76.4915 17.3594 76.5994 17.3651C76.7102 17.3707 76.7969 17.3778 76.8594 17.3864V18.6051C76.8082 18.5909 76.7173 18.5753 76.5866 18.5582C76.456 18.5384 76.3253 18.5284 76.1946 18.5284C75.8935 18.5284 75.625 18.5923 75.3892 18.7202C75.1563 18.8452 74.9716 19.0199 74.8352 19.2443C74.6989 19.4659 74.6307 19.7187 74.6307 20.0028V24H73.3565ZM77.962 24V17.4545H79.2362V24H77.962ZM78.6055 16.4446C78.3839 16.4446 78.1935 16.3707 78.0344 16.223C77.8782 16.0724 77.8001 15.8935 77.8001 15.6861C77.8001 15.4759 77.8782 15.2969 78.0344 15.1491C78.1935 14.9986 78.3839 14.9233 78.6055 14.9233C78.8271 14.9233 79.016 14.9986 79.1722 15.1491C79.3313 15.2969 79.4109 15.4759 79.4109 15.6861C79.4109 15.8935 79.3313 16.0724 79.1722 16.223C79.016 16.3707 78.8271 16.4446 78.6055 16.4446ZM81.7898 24.081C81.5568 24.081 81.3565 23.9986 81.1889 23.8338C81.0213 23.6662 80.9375 23.4645 80.9375 23.2287C80.9375 22.9957 81.0213 22.7969 81.1889 22.6321C81.3565 22.4645 81.5568 22.3807 81.7898 22.3807C82.0227 22.3807 82.223 22.4645 82.3906 22.6321C82.5582 22.7969 82.642 22.9957 82.642 23.2287C82.642 23.3849 82.6023 23.5284 82.5227 23.6591C82.446 23.7869 82.3438 23.8892 82.2159 23.9659C82.0881 24.0426 81.946 24.081 81.7898 24.081ZM87.1058 24.1321C86.4723 24.1321 85.9268 23.9886 85.4695 23.7017C85.0149 23.4119 84.6655 23.0128 84.4212 22.5043C84.1768 21.9957 84.0547 21.4134 84.0547 20.7571C84.0547 20.0923 84.1797 19.5057 84.4297 18.9972C84.6797 18.4858 85.032 18.0866 85.4865 17.7997C85.9411 17.5128 86.4766 17.3693 87.093 17.3693C87.5902 17.3693 88.0334 17.4616 88.4226 17.6463C88.8118 17.8281 89.1257 18.0838 89.3643 18.4134C89.6058 18.7429 89.7493 19.1278 89.7947 19.5682H88.5547C88.4865 19.2614 88.3303 18.9972 88.0859 18.7756C87.8445 18.554 87.5206 18.4432 87.1143 18.4432C86.7592 18.4432 86.4482 18.5369 86.1811 18.7244C85.9169 18.9091 85.7109 19.1733 85.5632 19.517C85.4155 19.858 85.3416 20.2614 85.3416 20.7273C85.3416 21.2045 85.4141 21.6165 85.5589 21.9631C85.7038 22.3097 85.9084 22.5781 86.1726 22.7685C86.4396 22.9588 86.7536 23.054 87.1143 23.054C87.3558 23.054 87.5746 23.0099 87.7706 22.9219C87.9695 22.831 88.1357 22.7017 88.2692 22.5341C88.4055 22.3665 88.5007 22.1648 88.5547 21.929H89.7947C89.7493 22.3523 89.6115 22.7301 89.3814 23.0625C89.1513 23.3949 88.843 23.6562 88.4567 23.8466C88.0732 24.0369 87.6229 24.1321 87.1058 24.1321ZM93.9144 24.1321C93.3008 24.1321 92.7653 23.9915 92.3079 23.7102C91.8505 23.429 91.4954 23.0355 91.2425 22.5298C90.9897 22.0241 90.8633 21.4332 90.8633 20.7571C90.8633 20.0781 90.9897 19.4844 91.2425 18.9759C91.4954 18.4673 91.8505 18.0724 92.3079 17.7912C92.7653 17.5099 93.3008 17.3693 93.9144 17.3693C94.5281 17.3693 95.0636 17.5099 95.521 17.7912C95.9783 18.0724 96.3335 18.4673 96.5863 18.9759C96.8391 19.4844 96.9656 20.0781 96.9656 20.7571C96.9656 21.4332 96.8391 22.0241 96.5863 22.5298C96.3335 23.0355 95.9783 23.429 95.521 23.7102C95.0636 23.9915 94.5281 24.1321 93.9144 24.1321ZM93.9187 23.0625C94.3164 23.0625 94.646 22.9574 94.9073 22.7472C95.1687 22.5369 95.3619 22.2571 95.4869 21.9077C95.6147 21.5582 95.6786 21.1733 95.6786 20.7528C95.6786 20.3352 95.6147 19.9517 95.4869 19.6023C95.3619 19.25 95.1687 18.9673 94.9073 18.7543C94.646 18.5412 94.3164 18.4347 93.9187 18.4347C93.5181 18.4347 93.1857 18.5412 92.9215 18.7543C92.6602 18.9673 92.4656 19.25 92.3377 19.6023C92.2127 19.9517 92.1502 20.3352 92.1502 20.7528C92.1502 21.1733 92.2127 21.5582 92.3377 21.9077C92.4656 22.2571 92.6602 22.5369 92.9215 22.7472C93.1857 22.9574 93.5181 23.0625 93.9187 23.0625Z" fill="white"/>
</svg>
