<svg width="102" height="30" viewBox="0 0 102 30" fill="none" xmlns="http://www.w3.org/2000/svg">
<path d="M98.2222 0H3.77778C1.69137 0 0 1.67893 0 3.75V26.25C0 28.3211 1.69137 30 3.77778 30H98.2222C100.309 30 102 28.3211 102 26.25V3.75C102 1.67893 100.309 0 98.2222 0Z" fill="black"/>
<path d="M98.2222 0.600002C99.0638 0.600002 99.871 0.931874 100.466 1.52261C101.061 2.11335 101.396 2.91457 101.396 3.75V26.25C101.396 27.0854 101.061 27.8866 100.466 28.4774C99.871 29.0681 99.0638 29.4 98.2222 29.4H3.77778C2.93616 29.4 2.12901 29.0681 1.53389 28.4774C0.938777 27.8866 0.604445 27.0854 0.604445 26.25V3.75C0.604445 3.33634 0.686525 2.92672 0.846 2.54455C1.00548 2.16237 1.23922 1.81512 1.53389 1.52261C1.82856 1.23011 2.17839 0.998081 2.5634 0.839779C2.9484 0.681477 3.36105 0.600002 3.77778 0.600002H98.2222ZM98.2222 0H3.77778C2.77585 0 1.81496 0.395085 1.10649 1.09835C0.398015 1.80161 0 2.75544 0 3.75V26.25C0 27.2446 0.398015 28.1984 1.10649 28.9016C1.81496 29.6049 2.77585 30 3.77778 30H98.2222C99.2242 30 100.185 29.6049 100.894 28.9016C101.602 28.1984 102 27.2446 102 26.25V3.75C102 2.75544 101.602 1.80161 100.894 1.09835C100.185 0.395085 99.2242 0 98.2222 0Z" fill="#A6A6A6"/>
<path d="M35.8284 7.68009C35.8408 7.95514 35.797 8.22982 35.6996 8.48761C35.6022 8.7454 35.4533 8.98096 35.2618 9.18009C35.0471 9.40006 34.7881 9.57256 34.5016 9.68629C34.2152 9.80003 33.9078 9.85244 33.5995 9.84009C33.2895 9.84695 32.9813 9.79058 32.6941 9.67448C32.4069 9.55837 32.1468 9.385 31.9298 9.16509C31.705 8.94859 31.5278 8.6882 31.4095 8.40034C31.2911 8.11248 31.2342 7.8034 31.2422 7.49259C31.2342 7.18179 31.2911 6.8727 31.4095 6.58484C31.5278 6.29698 31.705 6.03658 31.9298 5.82009C32.1468 5.60018 32.4069 5.4268 32.6941 5.3107C32.9813 5.1946 33.2895 5.13823 33.5995 5.14509C33.9192 5.14184 34.2359 5.20574 34.5289 5.33259C34.8013 5.44376 35.0443 5.6157 35.2391 5.83509L34.8386 6.23259C34.6902 6.05764 34.5034 5.91871 34.2926 5.82641C34.0817 5.73412 33.8524 5.69091 33.6222 5.70009C33.3925 5.69879 33.1648 5.74251 32.9522 5.82874C32.7396 5.91497 32.5462 6.04201 32.3831 6.20259C32.2095 6.37054 32.0733 6.57283 31.9835 6.79635C31.8937 7.01987 31.8522 7.25963 31.8618 7.50009C31.8522 7.74055 31.8937 7.98031 31.9835 8.20383C32.0733 8.42735 32.2095 8.62964 32.3831 8.79759C32.5462 8.95816 32.7396 9.08521 32.9522 9.17144C33.1648 9.25767 33.3925 9.30139 33.6222 9.30009C33.8559 9.30568 34.0882 9.26401 34.3051 9.17762C34.5221 9.09124 34.719 8.96193 34.884 8.79759C35.1132 8.54373 35.2421 8.216 35.2466 7.87509H33.6222V7.33509H35.8209C35.8305 7.44983 35.833 7.56505 35.8284 7.68009Z" fill="white" stroke="white" stroke-width="0.2" stroke-miterlimit="10"/>
<path d="M39.3115 5.805H37.2489V7.23H39.1075V7.77H37.2489V9.195H39.3115V9.75H36.6444V5.25H39.2964L39.3115 5.805Z" fill="white" stroke="white" stroke-width="0.2" stroke-miterlimit="10"/>
<path d="M41.7671 9.75H41.1778V5.805H39.916V5.25H43.0289V5.805H41.7671V9.75Z" fill="white" stroke="white" stroke-width="0.2" stroke-miterlimit="10"/>
<path d="M45.288 9.75V5.25H45.8697V9.75H45.288Z" fill="white" stroke="white" stroke-width="0.2" stroke-miterlimit="10"/>
<path d="M48.4539 9.75H47.8721V5.805H46.6028V5.25H49.7157V5.805H48.4539V9.75Z" fill="white" stroke="white" stroke-width="0.2" stroke-miterlimit="10"/>
<path d="M55.6165 9.16511C55.403 9.38801 55.1447 9.56394 54.8583 9.6815C54.572 9.79907 54.264 9.85566 53.9542 9.84761C53.6445 9.85566 53.3365 9.79907 53.0502 9.6815C52.7638 9.56394 52.5055 9.38801 52.292 9.16511C52.0723 8.94755 51.8999 8.68752 51.7855 8.40111C51.6711 8.11471 51.6172 7.80804 51.6271 7.50011C51.6172 7.19218 51.6711 6.88551 51.7855 6.59911C51.8999 6.3127 52.0723 6.05266 52.292 5.83511C52.5055 5.61221 52.7638 5.43628 53.0502 5.31872C53.3365 5.20115 53.6445 5.14456 53.9542 5.15261C54.2636 5.14775 54.5706 5.2058 54.8565 5.32317C55.1423 5.44055 55.401 5.61477 55.6165 5.83511C55.8351 6.05385 56.0072 6.31393 56.1228 6.59993C56.2383 6.88593 56.2948 7.19204 56.2889 7.50011C56.2978 7.80858 56.2428 8.11557 56.1271 8.40201C56.0114 8.68844 55.8376 8.94819 55.6165 9.16511ZM52.7227 8.79011C52.8813 8.95496 53.0727 9.08539 53.2846 9.17317C53.4966 9.26095 53.7246 9.30417 53.9542 9.30011C54.1839 9.30417 54.4119 9.26095 54.6238 9.17317C54.8358 9.08539 55.0272 8.95496 55.1858 8.79011C55.3532 8.61988 55.4843 8.41792 55.5712 8.19628C55.6582 7.97463 55.6993 7.73786 55.692 7.50011C55.6993 7.26235 55.6582 7.02558 55.5712 6.80394C55.4843 6.5823 55.3532 6.38033 55.1858 6.21011C55.0272 6.04525 54.8358 5.91482 54.6238 5.82705C54.4119 5.73927 54.1839 5.69605 53.9542 5.70011C53.7246 5.69605 53.4966 5.73927 53.2846 5.82705C53.0727 5.91482 52.8813 6.04525 52.7227 6.21011C52.5553 6.38033 52.4242 6.5823 52.3372 6.80394C52.2503 7.02558 52.2092 7.26235 52.2165 7.50011C52.2092 7.73786 52.2503 7.97463 52.3372 8.19628C52.4242 8.41792 52.5553 8.61988 52.7227 8.79011Z" fill="white" stroke="white" stroke-width="0.2" stroke-miterlimit="10"/>
<path d="M57.1049 9.75V5.25H57.8L60.0062 8.7525V7.8825V5.25H60.588V9.75H59.9835L57.6791 6.0825V6.945V9.75H57.1049Z" fill="white" stroke="white" stroke-width="0.2" stroke-miterlimit="10"/>
<path d="M51.4836 16.3123C51.059 16.3042 50.637 16.381 50.2429 16.5382C49.8488 16.6953 49.4906 16.9295 49.1896 17.2269C48.8885 17.5244 48.6509 17.8788 48.4907 18.2693C48.3306 18.6598 48.2512 19.0783 48.2574 19.4998C48.2513 19.9217 48.3306 20.3405 48.4906 20.7314C48.6507 21.1223 48.8882 21.4773 49.1891 21.7753C49.4901 22.0733 49.8482 22.3082 50.2424 22.4662C50.6365 22.6241 51.0586 22.7019 51.4836 22.6948C51.9083 22.7009 52.33 22.6224 52.7236 22.4641C53.1173 22.3057 53.4751 22.0707 53.7758 21.7729C54.0765 21.4751 54.314 21.1206 54.4745 20.7302C54.6349 20.3398 54.7149 19.9214 54.7098 19.4998C54.716 19.0783 54.6366 18.6598 54.4765 18.2693C54.3164 17.8788 54.0787 17.5244 53.7777 17.2269C53.4766 16.9295 53.1184 16.6953 52.7243 16.5382C52.3302 16.381 51.9083 16.3042 51.4836 16.3123ZM51.4836 21.4348C51.2355 21.4291 50.9911 21.3741 50.7648 21.2732C50.5385 21.1722 50.3348 21.0273 50.1658 20.8469C49.9968 20.6666 49.8659 20.4545 49.7808 20.2231C49.6957 19.9918 49.6581 19.7458 49.6703 19.4998C49.657 19.2539 49.6939 19.0079 49.7787 18.7765C49.8635 18.5451 49.9945 18.3331 50.1638 18.1531C50.3331 17.9731 50.5373 17.8289 50.7641 17.7291C50.9908 17.6293 51.2356 17.576 51.4836 17.5723C51.7287 17.581 51.9697 17.6379 52.1925 17.7398C52.4153 17.8417 52.6154 17.9865 52.7813 18.1658C52.9473 18.3452 53.0756 18.5554 53.1589 18.7845C53.2423 19.0135 53.2789 19.2566 53.2667 19.4998C53.2789 19.7434 53.2423 19.9869 53.1591 20.2164C53.0758 20.4458 52.9476 20.6566 52.7818 20.8365C52.616 21.0165 52.4159 21.162 52.193 21.2647C51.9702 21.3674 51.7291 21.4252 51.4836 21.4348ZM44.4418 16.3123C44.0172 16.3042 43.5953 16.381 43.2011 16.5382C42.807 16.6953 42.4488 16.9295 42.1478 17.2269C41.8468 17.5244 41.6091 17.8788 41.449 18.2693C41.2888 18.6598 41.2095 19.0783 41.2156 19.4998C41.2105 19.9214 41.2906 20.3398 41.451 20.7302C41.6114 21.1206 41.849 21.4751 42.1497 21.7729C42.4504 22.0707 42.8081 22.3057 43.2018 22.4641C43.5955 22.6224 44.0171 22.7009 44.4418 22.6948C44.8666 22.7009 45.2882 22.6224 45.6819 22.4641C46.0755 22.3057 46.4333 22.0707 46.734 21.7729C47.0347 21.4751 47.2723 21.1206 47.4327 20.7302C47.5931 20.3398 47.6731 19.9214 47.6681 19.4998C47.6742 19.0783 47.5949 18.6598 47.4347 18.2693C47.2746 17.8788 47.0369 17.5244 46.7359 17.2269C46.4349 16.9295 46.0766 16.6953 45.6825 16.5382C45.2884 16.381 44.8665 16.3042 44.4418 16.3123ZM44.4418 21.4348C44.1938 21.4291 43.9494 21.3741 43.723 21.2732C43.4967 21.1722 43.293 21.0273 43.124 20.8469C42.955 20.6666 42.8241 20.4545 42.739 20.2231C42.6539 19.9918 42.6163 19.7458 42.6285 19.4998C42.6153 19.2539 42.6521 19.0079 42.7369 18.7765C42.8217 18.5451 42.9527 18.3331 43.122 18.1531C43.2913 17.9731 43.4955 17.8289 43.7223 17.7291C43.9491 17.6293 44.1938 17.576 44.4418 17.5723C44.6899 17.576 44.9346 17.6293 45.1614 17.7291C45.3882 17.8289 45.5923 17.9731 45.7616 18.1531C45.9309 18.3331 46.0619 18.5451 46.1467 18.7765C46.2315 19.0079 46.2684 19.2539 46.2552 19.4998C46.2673 19.7458 46.2298 19.9918 46.1447 20.2231C46.0595 20.4545 45.9286 20.6666 45.7596 20.8469C45.5906 21.0273 45.387 21.1722 45.1606 21.2732C44.9343 21.3741 44.6899 21.4291 44.4418 21.4348ZM36.0703 17.2948V18.6448H39.3343C39.2831 19.2807 39.0168 19.8807 38.5787 20.3473C38.2563 20.6833 37.8665 20.9484 37.4344 21.1254C37.0023 21.3024 36.5376 21.3874 36.0703 21.3748C35.5968 21.3739 35.1282 21.2797 34.6915 21.0978C34.2549 20.9159 33.859 20.6498 33.5266 20.3151C33.1943 19.9803 32.9321 19.5834 32.7553 19.1473C32.5785 18.7113 32.4905 18.2448 32.4965 17.7748C32.4905 17.3048 32.5785 16.8383 32.7553 16.4023C32.9321 15.9663 33.1943 15.5694 33.5266 15.2346C33.859 14.8998 34.2549 14.6337 34.6915 14.4518C35.1282 14.2699 35.5968 14.1758 36.0703 14.1748C36.9872 14.1652 37.8714 14.5125 38.5334 15.1423L39.4929 14.1898C39.0426 13.7477 38.5079 13.3992 37.9202 13.1648C37.3325 12.9305 36.7036 12.8149 36.0703 12.8248C34.7401 12.8227 33.4627 13.3412 32.515 14.2678C31.5674 15.1944 31.0259 16.4545 31.0081 17.7748C31.0259 19.0958 31.5672 20.3566 32.5146 21.2845C33.462 22.2123 34.7394 22.7324 36.0703 22.7323C36.7166 22.7579 37.3611 22.6476 37.9614 22.4084C38.5617 22.1693 39.1042 21.8068 39.5534 21.3448C40.3468 20.4796 40.7696 19.3417 40.7321 18.1723C40.7348 17.8909 40.712 17.6097 40.6641 17.3323L36.0703 17.2948ZM70.3045 18.3748C70.1075 17.7994 69.739 17.2969 69.2479 16.934C68.7567 16.571 68.1662 16.3647 67.5543 16.3423C67.141 16.3415 66.7319 16.4249 66.3524 16.5872C65.9728 16.7496 65.6308 16.9875 65.3476 17.2862C65.0643 17.585 64.8458 17.9382 64.7055 18.3241C64.5653 18.71 64.5062 19.1204 64.5321 19.5298C64.5218 19.9496 64.5971 20.3672 64.7533 20.7574C64.9096 21.1476 65.1436 21.5026 65.4413 21.8009C65.739 22.0992 66.0943 22.3348 66.486 22.4936C66.8776 22.6523 67.2975 22.731 67.7205 22.7248C68.2502 22.7295 68.7726 22.6022 69.2399 22.3546C69.7072 22.1069 70.1044 21.7468 70.3952 21.3073L69.2996 20.5573C69.1363 20.8275 68.9047 21.0507 68.6277 21.2046C68.3507 21.3585 68.0379 21.4379 67.7205 21.4348C67.393 21.4482 67.0691 21.363 66.7913 21.1903C66.5135 21.0177 66.2949 20.7656 66.1641 20.4673L70.4632 18.7048L70.3045 18.3748ZM65.9223 19.4398C65.9027 19.2032 65.9317 18.9652 66.0075 18.74C66.0833 18.5149 66.2043 18.3073 66.3632 18.1299C66.5221 17.9526 66.7157 17.809 66.9321 17.708C67.1485 17.607 67.3833 17.5506 67.6223 17.5423C67.8657 17.5276 68.1081 17.5845 68.3192 17.7059C68.5302 17.8273 68.7004 18.0078 68.8085 18.2248L65.9223 19.4398ZM62.4316 22.4998H63.8445V13.1248H62.4316V22.4998ZM60.1196 17.0248H60.0667C59.8557 16.7862 59.5952 16.5957 59.3031 16.4662C59.011 16.3368 58.6942 16.2715 58.3743 16.2748C57.5425 16.306 56.7558 16.6581 56.1816 17.2562C55.6073 17.8543 55.2907 18.6511 55.2992 19.4773C55.2928 20.3007 55.6107 21.0941 56.1852 21.6881C56.7597 22.2822 57.5452 22.63 58.3743 22.6573C58.6946 22.6637 59.0124 22.5998 59.305 22.4701C59.5975 22.3405 59.8576 22.1483 60.0667 21.9073H60.1196V22.3648C60.1196 23.5873 59.4623 24.2398 58.4045 24.2398C58.0512 24.2321 57.7081 24.1203 57.4188 23.9187C57.1296 23.7171 56.9073 23.4346 56.7801 23.1073L55.5334 23.6698C55.7597 24.234 56.1531 24.7167 56.6617 25.0542C57.1703 25.3917 57.7701 25.568 58.3818 25.5598C60.0365 25.5598 61.4041 24.5923 61.4041 22.2373V16.5073H60.1196V17.0248ZM58.4952 21.4348C58.2504 21.4271 58.0096 21.3711 57.7868 21.2701C57.5641 21.169 57.3639 21.0249 57.1979 20.8461C57.0319 20.6674 56.9034 20.4576 56.82 20.229C56.7366 20.0004 56.6999 19.7576 56.7121 19.5148C56.6978 19.2704 56.7329 19.0256 56.8153 18.7949C56.8977 18.5641 57.0257 18.352 57.1918 18.1711C57.3579 17.9901 57.5588 17.8439 57.7826 17.7411C58.0064 17.6383 58.2487 17.5809 58.4952 17.5723C58.7385 17.5826 58.9772 17.6416 59.197 17.7458C59.4168 17.85 59.613 17.9973 59.7739 18.1788C59.9349 18.3603 60.0572 18.5722 60.1334 18.8018C60.2097 19.0314 60.2384 19.2739 60.2178 19.5148C60.2363 19.7541 60.206 19.9947 60.1286 20.2221C60.0513 20.4495 59.9285 20.6591 59.7677 20.8384C59.6069 21.0176 59.4113 21.1628 59.1927 21.2653C58.974 21.3678 58.7368 21.4254 58.4952 21.4348ZM76.9232 13.1248H73.5383V22.4998H74.9512V18.9448H76.9232C77.7222 18.965 78.4968 18.6701 79.0774 18.1248C79.658 17.5794 79.9972 16.8279 80.021 16.0348C79.9972 15.2417 79.658 14.4902 79.0774 13.9449C78.4968 13.3995 77.7222 13.1046 76.9232 13.1248ZM76.9232 17.6248H74.9512V14.4148H76.9534C77.1683 14.4118 77.3818 14.4511 77.5814 14.5302C77.7811 14.6093 77.963 14.7269 78.1167 14.876C78.2705 15.0251 78.393 15.203 78.4774 15.3992C78.5617 15.5955 78.6061 15.8064 78.6081 16.0198C78.6021 16.4502 78.4246 16.8606 78.1145 17.1614C77.8044 17.4622 77.3869 17.6288 76.9534 17.6248H76.9232ZM85.6423 16.2823C85.1278 16.2508 84.6152 16.3697 84.168 16.6243C83.7209 16.8789 83.3587 17.258 83.1263 17.7148L84.3729 18.2323C84.4989 18.0069 84.688 17.8224 84.9172 17.7013C85.1465 17.5802 85.4062 17.5276 85.6649 17.5498C85.8443 17.529 86.026 17.5439 86.1996 17.5936C86.3731 17.6432 86.5349 17.7267 86.6755 17.8391C86.8162 17.9515 86.9329 18.0906 87.0188 18.2482C87.1048 18.4059 87.1582 18.5789 87.1761 18.7573V18.8473C86.7217 18.6103 86.216 18.4867 85.7027 18.4873C84.3578 18.4873 82.9827 19.2373 82.9827 20.6023C82.996 20.8924 83.0679 21.177 83.1942 21.439C83.3204 21.701 83.4984 21.9351 83.7176 22.1275C83.9368 22.3199 84.1927 22.4666 84.4701 22.5589C84.7475 22.6512 85.0408 22.6872 85.3325 22.6648C85.6878 22.6835 86.0416 22.6079 86.3577 22.4457C86.6738 22.2836 86.9406 22.0408 87.1307 21.7423H87.1761V22.4923H88.5361V18.8998C88.5361 17.2273 87.2667 16.2973 85.6725 16.2973L85.6423 16.2823ZM85.4685 21.4198C85.0076 21.4198 84.3654 21.1873 84.3654 20.6248C84.3654 19.8748 85.1663 19.6198 85.8765 19.6198C86.3253 19.6088 86.7689 19.7176 87.1609 19.9348C87.1135 20.3421 86.919 20.7185 86.6133 20.9943C86.3077 21.2702 85.9117 21.4266 85.4987 21.4348L85.4685 21.4198ZM93.4623 16.4848L91.8454 20.5498H91.8001L90.1227 16.4848H88.6116L91.1276 22.1698L89.6921 25.3273H91.2032L95.0792 16.4848H93.4623ZM80.769 22.4848H82.1743V13.1248H80.769V22.4848Z" fill="white"/>
<path opacity="0.12" d="M7.8879 24.2401C7.63708 23.946 7.50992 23.5673 7.53279 23.1826V23.2951C7.50708 23.6779 7.63471 24.0553 7.8879 24.3451L7.94079 24.2926L7.8879 24.2401Z" fill="black"/>
<path opacity="0.12" d="M24.1854 15.975L20.4076 18.0975L20.4756 18.165L24.1703 16.08C24.3878 15.987 24.5762 15.8377 24.7158 15.6478C24.8554 15.4578 24.9409 15.2341 24.9636 15C24.9187 15.2112 24.8251 15.4092 24.69 15.5784C24.555 15.7476 24.3822 15.8833 24.1854 15.975Z" fill="black"/>
<path d="M7.88802 5.625C7.63904 5.91721 7.51201 6.29285 7.53291 6.675V23.265C7.5072 23.6478 7.63483 24.0252 7.88802 24.315L7.93336 24.375L17.3022 15.1125V14.8875L7.93336 5.625H7.88802Z" fill="url(#paint0_linear_391_31)"/>
<path d="M20.4229 18.21L17.3025 15.1125V14.8875L20.4229 11.79L20.4909 11.835L24.1856 13.92C25.2434 14.5125 25.2434 15.4875 24.1856 16.0875L20.4909 18.1725L20.4229 18.21Z" fill="url(#paint1_linear_391_31)"/>
<path d="M20.4909 18.165L17.3024 15L7.88818 24.375C8.10735 24.5542 8.38246 24.6522 8.66641 24.6522C8.95035 24.6522 9.22546 24.5542 9.44463 24.375L20.4833 18.1425" fill="url(#paint2_linear_391_31)"/>
<path d="M20.4903 11.835L9.44413 5.62499C9.21975 5.44868 8.93993 5.35653 8.65387 5.36477C8.36782 5.373 8.09384 5.48107 7.88013 5.66999L17.3019 15L20.4903 11.835Z" fill="url(#paint3_linear_391_31)"/>
<path opacity="0.2" d="M20.4224 18.0977L9.44413 24.2852C9.22648 24.4482 8.96124 24.5364 8.68857 24.5364C8.4159 24.5364 8.15066 24.4482 7.93302 24.2852L7.88013 24.3377L7.93302 24.3752C8.15066 24.5382 8.4159 24.6264 8.68857 24.6264C8.96124 24.6264 9.22648 24.5382 9.44413 24.3752L20.4828 18.1427L20.4224 18.0977Z" fill="black"/>
<path opacity="0.25" d="M9.4445 5.71488L24.1854 14.0249C24.3851 14.1147 24.5608 14.2497 24.6986 14.419C24.8363 14.5883 24.9323 14.7872 24.9787 14.9999C24.9561 14.7658 24.8705 14.5421 24.7309 14.3521C24.5914 14.1621 24.403 14.0129 24.1854 13.9199L9.4445 5.62488C8.39428 5.02488 7.52539 5.51988 7.52539 6.71988V6.83238C7.53295 5.62488 8.40184 5.12238 9.4445 5.71488Z" fill="white"/>
<defs>
<linearGradient id="paint0_linear_391_31" x1="16.4711" y1="6.5325" x2="3.88647" y2="19.2104" gradientUnits="userSpaceOnUse">
<stop stop-color="#00A0FF"/>
<stop offset="0.01" stop-color="#00A1FF"/>
<stop offset="0.26" stop-color="#00BEFF"/>
<stop offset="0.51" stop-color="#00D2FF"/>
<stop offset="0.76" stop-color="#00DFFF"/>
<stop offset="1" stop-color="#00E3FF"/>
</linearGradient>
<linearGradient id="paint1_linear_391_31" x1="25.5607" y1="15" x2="7.28382" y2="15" gradientUnits="userSpaceOnUse">
<stop stop-color="#FFE000"/>
<stop offset="0.41" stop-color="#FFBD00"/>
<stop offset="0.78" stop-color="#FFA500"/>
<stop offset="1" stop-color="#FF9C00"/>
</linearGradient>
<linearGradient id="paint2_linear_391_31" x1="18.7606" y1="16.7175" x2="1.6911" y2="33.9135" gradientUnits="userSpaceOnUse">
<stop stop-color="#FF3A44"/>
<stop offset="1" stop-color="#C31162"/>
</linearGradient>
<linearGradient id="paint3_linear_391_31" x1="5.51524" y1="0.127491" x2="13.135" y2="7.80373" gradientUnits="userSpaceOnUse">
<stop stop-color="#32A071"/>
<stop offset="0.07" stop-color="#2DA771"/>
<stop offset="0.48" stop-color="#15CF74"/>
<stop offset="0.8" stop-color="#06E775"/>
<stop offset="1" stop-color="#00F076"/>
</linearGradient>
</defs>
</svg>
