<svg width="12" height="15" viewBox="0 0 12 15" fill="none" xmlns="http://www.w3.org/2000/svg">
<path d="M11.3333 14.6667H9.99996V13.3333C9.99996 12.8029 9.78925 12.2942 9.41417 11.9191C9.0391 11.544 8.53039 11.3333 7.99996 11.3333H3.99996C3.46953 11.3333 2.96082 11.544 2.58575 11.9191C2.21067 12.2942 1.99996 12.8029 1.99996 13.3333V14.6667H0.666626V13.3333C0.666626 12.4493 1.01782 11.6014 1.64294 10.9763C2.26806 10.3512 3.1159 9.99999 3.99996 9.99999H7.99996C8.88401 9.99999 9.73186 10.3512 10.357 10.9763C10.9821 11.6014 11.3333 12.4493 11.3333 13.3333V14.6667ZM5.99996 8.66666C5.47467 8.66666 4.95453 8.56319 4.46923 8.36217C3.98392 8.16116 3.54297 7.86652 3.17153 7.49508C2.8001 7.12365 2.50546 6.68269 2.30444 6.19739C2.10342 5.71209 1.99996 5.19194 1.99996 4.66666C1.99996 4.14137 2.10342 3.62122 2.30444 3.13592C2.50546 2.65062 2.8001 2.20966 3.17153 1.83823C3.54297 1.46679 3.98392 1.17216 4.46923 0.971138C4.95453 0.77012 5.47467 0.666656 5.99996 0.666656C7.06083 0.666657 8.07824 1.08808 8.82839 1.83823C9.57853 2.58837 9.99996 3.60579 9.99996 4.66666C9.99996 5.72752 9.57853 6.74494 8.82839 7.49508C8.07824 8.24523 7.06083 8.66666 5.99996 8.66666ZM5.99996 7.33332C6.7072 7.33332 7.38548 7.05237 7.88558 6.55227C8.38567 6.05218 8.66663 5.3739 8.66663 4.66666C8.66663 3.95941 8.38567 3.28114 7.88558 2.78104C7.38548 2.28094 6.7072 1.99999 5.99996 1.99999C5.29272 1.99999 4.61444 2.28094 4.11434 2.78104C3.61424 3.28114 3.33329 3.95941 3.33329 4.66666C3.33329 5.3739 3.61424 6.05218 4.11434 6.55227C4.61444 7.05237 5.29272 7.33332 5.99996 7.33332Z" fill="#151414"/>
</svg>
