<svg width="34" height="42" viewBox="0 0 34 42" fill="none" xmlns="http://www.w3.org/2000/svg">
<path d="M1.9355 4.18092L17 0.833252L32.0645 4.18092C32.4716 4.27142 32.8357 4.49802 33.0967 4.82333C33.3577 5.14863 33.4999 5.5532 33.5 5.97025V24.2798C33.4999 26.0906 33.0527 27.8734 32.1981 29.4699C31.3436 31.0665 30.1081 32.4273 28.6013 33.4318L17 41.1666L5.39867 33.4318C3.89217 32.4275 2.65684 31.0669 1.8023 29.4707C0.947765 27.8746 0.500433 26.0921 0.5 24.2816V5.97025C0.500072 5.5532 0.642336 5.14863 0.903314 4.82333C1.16429 4.49802 1.52838 4.27142 1.9355 4.18092ZM17 23.7499L22.3882 26.5824L21.3597 20.5838L25.7175 16.3341L19.6932 15.4578L17 9.99992L14.305 15.4578L8.2825 16.3341L12.6403 20.5838L11.6137 26.5824L17 23.7499Z" fill="white"/>
</svg>
